<svg width="70" height="147" viewBox="0 0 70 147" fill="none" xmlns="http://www.w3.org/2000/svg">
<path d="M7.40871 47.5713L15.7182 8.95653C16.466 5.48149 19.5383 3 23.0929 3H47.7818C51.3995 3 54.5162 5.5488 55.2343 9.09445L63.0955 47.909C66.6642 65.5294 53.195 82 35.2168 82C17.0976 82 3.5969 65.285 7.40871 47.5713Z" stroke="black" stroke-width="5" stroke-linecap="round"/>
<path d="M13.0335 48.8659L15.2919 39.8322C15.7081 38.1677 17.2037 37 18.9194 37H51.0806C52.7963 37 54.2919 38.1677 54.7081 39.8322L56.9665 48.8659C60.5392 63.1566 49.7306 77 35 77C20.2694 77 9.46084 63.1566 13.0335 48.8659Z" fill="black"/>
<path d="M34 82.5V133.5" stroke="black" stroke-width="5" stroke-linecap="round"/>
<path d="M33.1129 131.439C33.672 131.162 34.328 131.162 34.8871 131.439L50.5851 139.207C52.4806 140.146 51.8129 143 49.698 143H18.302C16.1871 143 15.5194 140.146 17.4149 139.207L33.1129 131.439Z" fill="black"/>
</svg>
