<svg id="Layer_1" data-name="Layer 1" xmlns="http://www.w3.org/2000/svg" viewBox="0 0 4531.87 1193.04"><defs><style>.cls-1{fill:#fff;}.cls-2{fill:#003863;}.cls-3{fill:#e4032e;}</style></defs><title>logo</title><path class="cls-1" d="M2227.47,1146.21l-66-142.61v142.61h-29.13v-175h43.19l66,143.1V971.22h29.14v175Z" transform="translate(-682.09 -187.12)"/><path class="cls-1" d="M2358.71,1065.11h29.63q0-12.3-9.54-18.45t-27.62-6.16h-.75q-17.07,0-36.15,8l-7.28-22.36q19.83-8.52,43.68-8.78h.5q31.65,0,48.58,12.19t16.95,38.77v77.84h-27.12V1132.4a54.56,54.56,0,0,1-19.7,12.43,66.88,66.88,0,0,1-23.73,4.39q-22.59,0-36.52-11.92T2295.69,1108q0-19.32,17.34-31.88Q2329.09,1065.12,2358.71,1065.11Zm-7.78,61.51a48.31,48.31,0,0,0,21.84-5.39q10.8-5.4,15.57-12.43v-21.34H2363q-21.58,0-30.12,5.51-8.28,6.29-8.29,15.07,0,8,7,13.31T2350.93,1126.62Z" transform="translate(-682.09 -187.12)"/><path class="cls-1" d="M2486.47,980v40.42h27.35v23.11h-27.35v64q0,9,4.39,12.42t12.43,3.4h10.53v22.85H2496.5q-20.33,0-29.61-9t-9.3-26.85v-66.78H2436v-23.11h21.59V980Z" transform="translate(-682.09 -187.12)"/><path class="cls-1" d="M2570.78,981.26a17.15,17.15,0,0,1-5.4,12.43,18.18,18.18,0,0,1-25.86,0,17.11,17.11,0,0,1-5.4-12.43,18.33,18.33,0,0,1,36.66,0Zm-32.39,165V1020.42H2567v125.79Z" transform="translate(-682.09 -187.12)"/><path class="cls-1" d="M2659.6,1149.22q-27.63,0-47.07-19t-19.46-46.82q0-27.87,19.46-47t47.07-19.08q27.86,0,47.2,19.08t19.33,47q0,27.87-19.33,46.82T2659.6,1149.22Zm0-23.6q15.55,0,26.74-11.93t11.17-30.25q0-18.07-11.17-30.26T2659.6,1041q-15.32,0-26.49,12.17T2622,1083.44q0,18.32,11.16,30.25T2659.6,1125.62Z" transform="translate(-682.09 -187.12)"/><path class="cls-1" d="M2779.05,1082.94v63.27h-28.37V1020.42h27.37v16.82a38.84,38.84,0,0,1,14.55-14.31,40.6,40.6,0,0,1,20.6-5.52q22.35,0,35.78,15.19t13.43,40.55v73.06h-28.63v-65.78q0-20.07-6.52-29.76t-20.09-9.66a23.64,23.64,0,0,0-13.67,4.64,29.24,29.24,0,0,0-10.17,12.69Q2779.06,1067.61,2779.05,1082.94Z" transform="translate(-682.09 -187.12)"/><path class="cls-1" d="M2949.72,1065.11h29.63q0-12.3-9.53-18.45t-27.63-6.16h-.75q-17.07,0-36.15,8l-7.29-22.36q19.85-8.52,43.7-8.78h.49q31.65,0,48.58,12.19t16.94,38.77v77.84h-27.1V1132.4a54.6,54.6,0,0,1-19.71,12.43,66.86,66.86,0,0,1-23.72,4.39q-22.6,0-36.53-11.92t-14-29.26q0-19.32,17.34-31.88Q2920.09,1065.12,2949.72,1065.11Zm-7.78,61.51a48.41,48.41,0,0,0,21.85-5.39q10.8-5.4,15.56-12.43v-21.34H2954q-21.59,0-30.14,5.51-8.27,6.29-8.28,15.07,0,8,7,13.31T2941.94,1126.62Z" transform="translate(-682.09 -187.12)"/><path class="cls-1" d="M3040.8,1146.21V959.67h28.38v186.54Z" transform="translate(-682.09 -187.12)"/><path class="cls-1" d="M3353.77,971.22v175h-28.1V1005.36L3280,1146.21h-27.11l-45.7-140.85v140.85H3179v-175h43.19l44.19,136.32,44.19-136.32Z" transform="translate(-682.09 -187.12)"/><path class="cls-1" d="M3471,1083.7v-63.28h28.62v125.79h-27.36v-16.58a35.41,35.41,0,0,1-14.06,14.06,44.52,44.52,0,0,1-21.34,5.53q-22.11,0-35.53-15.07t-13.43-40.66v-73.07h28.36v66q0,19.83,6.67,29.5t20.21,9.66q6.77,0,13.55-4.65a29.39,29.39,0,0,0,10.29-12.41Q3471,1099.26,3471,1083.7Z" transform="translate(-682.09 -187.12)"/><path class="cls-1" d="M3521.15,1122.86l17.81-18.33a62.55,62.55,0,0,0,16.58,16.06,35.84,35.84,0,0,0,18.83,5.28q9.54,0,16.18-3.89t6.67-10.42c0-4.35-2.15-7.75-6.4-10.16a104.72,104.72,0,0,0-15.2-6.91q-10.29-3.26-21.1-7.28-14.55-5.26-21.32-13.56a28.94,28.94,0,0,1-6.78-18.83q0-15.57,14.56-26.49t34.39-10.92q21.09,0,34.4,10a39.07,39.07,0,0,1,10.79,13L3603,1057.58a34.32,34.32,0,0,0-8.28-9.79q-8.3-7.27-20.84-7.29a22.13,22.13,0,0,0-12.67,3.65q-5.41,3.64-5.42,8.65c0,3.7,2,6.79,6,9.3s10,5,17.83,7.28c2.84.85,6.11,1.84,9.79,3q18.33,6,27.74,15.56a31.4,31.4,0,0,1,9.41,22.85q0,15.57-15,27t-38.41,11.43q-19.59,0-34.66-9A53.38,53.38,0,0,1,3521.15,1122.86Z" transform="translate(-682.09 -187.12)"/><path class="cls-1" d="M3670.22,1096a33.92,33.92,0,0,0,10.8,18.84q12.08,11.06,31.89,11,20.84,0,38.91-15.32l8.54,21.1q-20.34,17.56-48.21,17.57-31.86,0-51.85-18.08t-20-47.44q0-28.87,17.71-47.59t46.31-18.7q28.11,0,46.08,18.58t17.94,45.94a74.87,74.87,0,0,1-1.26,14.06Zm-.5-22.59h69.8q-.51-12.32-10.29-22.47t-24.86-10.16q-15.57,0-25.61,11Q3671.47,1060.07,3669.72,1073.4Z" transform="translate(-682.09 -187.12)"/><path class="cls-1" d="M3875.79,1083.7v-63.28h28.62v125.79h-27.36v-16.58a35.32,35.32,0,0,1-14.05,14.06,44.55,44.55,0,0,1-21.34,5.53q-22.11,0-35.53-15.07t-13.43-40.66v-73.07h28.36v66q0,19.83,6.66,29.5t20.21,9.66q6.78,0,13.56-4.65a29.3,29.3,0,0,0,10.28-12.41Q3875.79,1099.26,3875.79,1083.7Z" transform="translate(-682.09 -187.12)"/><path class="cls-1" d="M4071.06,1017.41q22.11,0,34.39,15.19t12.32,40.55v73.06h-28.12v-65.78q0-20.07-5.4-29.76t-17.71-9.66a20.24,20.24,0,0,0-12.68,4.15c-3.59,2.75-6.47,6.82-8.65,12.16q-3.51,8.31-3.51,23.11v65.78h-28.12v-65.78q0-20.07-5.53-29.76t-17.57-9.66a19.19,19.19,0,0,0-12.43,4.15c-3.43,2.75-6.32,6.82-8.66,12.16q-3.76,9.3-3.76,24.61v64.28H3937.5V1020.42h26.62v16.82q10.53-19.82,32.64-19.83,23.58,0,34.63,22.85,6.54-11.31,15.71-17.07T4071.06,1017.41Z" transform="translate(-682.09 -187.12)"/><path class="cls-1" d="M4280.85,1149.22q-27.62,0-47.07-19t-19.46-46.82q0-27.87,19.46-47t47.07-19.08q27.87,0,47.2,19.08t19.33,47q0,27.87-19.33,46.82T4280.85,1149.22Zm0-23.6q15.57,0,26.74-11.93t11.18-30.25q0-18.07-11.18-30.26T4280.85,1041q-15.32,0-26.49,12.17t-11.17,30.26q0,18.32,11.17,30.25T4280.85,1125.62Z" transform="translate(-682.09 -187.12)"/><path class="cls-1" d="M4378.47,995.32q0-17.84,9.92-26.86t30.25-9h13.81v22.85h-8.28q-8,0-12.44,3.38t-4.38,12.44v22.33h25.1v23.11h-25.1v102.68h-28.88V1043.53h-21.59v-23.11h21.59Z" transform="translate(-682.09 -187.12)"/><path class="cls-1" d="M4560.9,1052.56l72.8-81.34h35.4L4591,1058.08l77.83,88.13h-36.41l-71.54-81.35v81.35h-29.13v-175h29.13Z" transform="translate(-682.09 -187.12)"/><path class="cls-1" d="M4732.57,1149.22q-27.63,0-47.07-19T4666,1083.44q0-27.87,19.46-47t47.07-19.08q27.86,0,47.19,19.08t19.34,47q0,27.87-19.34,46.82T4732.57,1149.22Zm0-23.6q15.57,0,26.73-11.93t11.19-30.25q0-18.07-11.19-30.26T4732.57,1041q-15.32,0-26.49,12.17t-11.17,30.26q0,18.32,11.17,30.25T4732.57,1125.62Z" transform="translate(-682.09 -187.12)"/><path class="cls-1" d="M4823.66,1146.21V1020.42h26.86v18.84a44.61,44.61,0,0,1,15.32-14.32q10.8-6.51,25.35-6.53h2V1044h-3q-17.83,0-28.39,10.79-9.78,10.53-9.79,32.89v58.5Z" transform="translate(-682.09 -187.12)"/><path class="cls-1" d="M4932.05,1096a33.92,33.92,0,0,0,10.8,18.84q12.07,11.06,31.89,11,20.84,0,38.91-15.32l8.54,21.1q-20.32,17.56-48.21,17.57-31.86,0-51.84-18.08t-20-47.44q0-28.87,17.71-47.59t46.31-18.7q28.11,0,46.08,18.58t17.94,45.94A73.23,73.23,0,0,1,5029,1096Zm-.49-22.59h69.79q-.51-12.32-10.28-22.47t-24.87-10.16q-15.55,0-25.61,11Q4933.31,1060.07,4931.56,1073.4Z" transform="translate(-682.09 -187.12)"/><path class="cls-1" d="M5108.75,1065.11h29.64q0-12.3-9.55-18.45t-27.62-6.16h-.75q-17.05,0-36.14,8l-7.29-22.36q19.83-8.52,43.68-8.78h.5q31.65,0,48.59,12.19t16.94,38.77v77.84h-27.12V1132.4a54.56,54.56,0,0,1-19.7,12.43,66.88,66.88,0,0,1-23.73,4.39q-22.59,0-36.52-11.92t-14-29.26q0-19.32,17.34-31.88Q5079.11,1065.12,5108.75,1065.11Zm-7.79,61.51a48.39,48.39,0,0,0,21.86-5.39q10.79-5.4,15.57-12.43v-21.34H5113q-21.59,0-30.13,5.51-8.27,6.29-8.28,15.07,0,8,7,13.31T5101,1126.62Z" transform="translate(-682.09 -187.12)"/><path class="cls-1" d="M2280.76,681V618.55h-170V571.49h393.79v47.06H2334.06V681h138.79V830.32h-53.3V727.56H2137.64V681Zm191.12-271.33V537.39h-53.3V456.71H2141.49V409.65Z" transform="translate(-682.09 -187.12)"/><path class="cls-1" d="M2806.12,632h-231V501.38h173.36V458.63H2575.13V413.49h226.19V544.6H2628v43.21h178.15Zm-207,22.58h52.35V690.1h231V654.57h52.33V820.73H2599.14Zm283.34,78.76h-231v43.22h231Zm-1-332.32h53.3V640.17h-53.3Z" transform="translate(-682.09 -187.12)"/><path class="cls-1" d="M3177.82,652.65V626.71h-170V581.1h393.79v45.61H3231.12v25.94a107.91,107.91,0,0,1,15.37,4.8,113.14,113.14,0,0,1,34.09,21.6,104.5,104.5,0,0,1,23.06,31.46,90.81,90.81,0,0,1,0,77.32,104.33,104.33,0,0,1-23.06,31.45,109.2,109.2,0,0,1-34.09,21.37,114,114,0,0,1-83.56,0,109.07,109.07,0,0,1-34.11-21.37,104.94,104.94,0,0,1-23-31.45,90.91,90.91,0,0,1,0-77.32,105.11,105.11,0,0,1,23-31.46,113,113,0,0,1,34.11-21.6A114.48,114.48,0,0,1,3177.82,652.65Zm195.93-201.22H3229.2l152.7,80.68-24.47,39.38L3204.7,490.33l-153.19,81.16-24-39.38,152.73-80.68H3035.67V406.29h338.08ZM3259.93,749.17q0-22.08-16.56-38.17t-38.67-16.1q-22.08,0-38.64,16.1t-16.58,38.17q0,22.1,16.58,38.18t38.64,16.09q22.08,0,38.67-16.09T3259.93,749.17Z" transform="translate(-682.09 -187.12)"/><path class="cls-1" d="M3682.52,512.9a98.12,98.12,0,0,1-9.35,42.74,118.84,118.84,0,0,1-24.73,34.58,120.16,120.16,0,0,1-36.75,23.53,118.51,118.51,0,0,1-88.84,0,120.31,120.31,0,0,1-36.73-23.53,114.48,114.48,0,0,1-25.21-34.58,101.71,101.71,0,0,1,0-85.24,108,108,0,0,1,25.21-34.33,120.34,120.34,0,0,1,36.73-23.54,118.38,118.38,0,0,1,88.84,0,120.19,120.19,0,0,1,36.75,23.54,111.9,111.9,0,0,1,24.73,34.33A98.62,98.62,0,0,1,3682.52,512.9Zm-51.38.48a61.47,61.47,0,0,0-18.73-45.14q-18.72-18.74-45.13-18.73-26.9,0-45.15,18.73t-18.25,45.14q0,26.89,18.25,45.39t45.15,18.48q26.38,0,45.13-18.48T3631.14,513.38Zm153.19,222.35a96.56,96.56,0,0,1-9.12,41.53,114,114,0,0,1-24,33.86,121.77,121.77,0,0,1-36.26,23.53,111.35,111.35,0,0,1-43.93,8.64,113,113,0,0,1-44.18-8.64,121.34,121.34,0,0,1-36.51-23.53,109.53,109.53,0,0,1-24.48-33.86,96.27,96.27,0,0,1-9.12-41.53,98,98,0,0,1,9.12-41.79,103.23,103.23,0,0,1,24.48-33.61,121.34,121.34,0,0,1,36.51-23.53,113,113,0,0,1,44.18-8.64,111.35,111.35,0,0,1,43.93,8.64,121.77,121.77,0,0,1,36.26,23.53,107.14,107.14,0,0,1,24,33.61A98.33,98.33,0,0,1,3784.33,735.73Zm-51.86-.48q0-25-18.25-43.23t-43.69-18.24q-25.47,0-43.46,18.24t-18,43.23q0,25.46,18,43.22t43.46,17.76a60.48,60.48,0,0,0,43.69-17.76Q3732.46,760.7,3732.47,735.25Zm71.08-107.09h-52.84V401h52.84V487H3865v52.83h-61.47Z" transform="translate(-682.09 -187.12)"/><path class="cls-1" d="M3906.8,410.14h52.81V469.2h118.14V410.14h51.86v216.1H3906.8ZM3915,667.05h337.13V825.53h-52.84V714.11H3915Zm162.8-151.75H3959.61v66.27h118.14Zm174.33,126.3h-52.84V401h52.84v89.8h61.47v52.82h-61.47Z" transform="translate(-682.09 -187.12)"/><path class="cls-1" d="M4523.4,644V614.23h-170v-43.7h393.79v43.7H4576.71V644H4715.5V752.54H4437.43v25.93h283.83v43.69H4385.1V710.75h277.56V686.27H4385.1V644ZM4385.1,406.29h330.4V542.2H4385.1Zm277.56,43.22H4437.43v49.95h225.23Z" transform="translate(-682.09 -187.12)"/><path class="cls-1" d="M5073.26,610.86v46.59h-278V610.86h86.9V515.3H4935v95.56ZM4996.89,570V456.24H4814.41V409.65h234.84V570ZM4825.46,822.16V693.47h53.3V775.1H5166.9v47.06Zm333.75-139.74h-53.3V401h53.3V516.27H5214v48.49h-54.76Z" transform="translate(-682.09 -187.12)"/><path class="cls-1" d="M1875.08,783.68c0,329.43-267,596.48-596.52,596.48S682.09,1113.11,682.09,783.68s267.09-596.56,596.47-596.56,596.52,267.05,596.52,596.56" transform="translate(-682.09 -187.12)"/><path class="cls-2" d="M1554.58,742.81c-93.39-63.5-212.92-37.62-275.69,57.8-52.37,79.64-131.53,89.62-162.14,89.62-99.87,0-168.09-70.24-188.37-142.9h-.07c-.23-.72-.38-1.34-.63-2.06s-.36-1.59-.57-2.46c-8-30.34-9.94-44.82-9.94-77.06,0-173.81,178.35-367.27,435.09-367.27,263,0,413.5,200.2,452.32,311.45-.69-1.95-1.36-3.93-2-5.94-74.61-217.56-281-374.07-524-374.07-305.72,0-553.71,247.86-553.71,553.76,0,273.42,197.21,507.45,470.68,507.45,218.18,0,364.76-122.36,432-290.89,36.9-92.2,10.85-200.56-72.93-257.43" transform="translate(-682.09 -187.12)"/><path class="cls-3" d="M1807.93,620.75c-32.25-108.57-183.88-322.27-455.67-322.27-256.74,0-435.09,193.48-435.09,367.29,0,32.21,2,46.7,9.93,77a164,164,0,0,1-5-39.48c0-181,181.16-306.41,367.5-306.41,252.15,0,456.54,204.4,456.54,456.57,0,197.67-113.72,368.75-279,451v.14c213.11-77.16,365.24-281.19,365.24-520.89,0-56.66-7.64-106.73-24.42-162.93" transform="translate(-682.09 -187.12)"/></svg>